<?xml version="1.0" encoding="utf-8"?>
<!-- Generator: Adobe Illustrator 16.0.0, SVG Export Plug-In . SVG Version: 6.00 Build 0)  -->
<!DOCTYPE svg PUBLIC "-//W3C//DTD SVG 1.1//EN" "http://www.w3.org/Graphics/SVG/1.1/DTD/svg11.dtd">
<svg version="1.1" id="Layer_1" xmlns="http://www.w3.org/2000/svg" xmlns:xlink="http://www.w3.org/1999/xlink" x="0px" y="0px"
	 width="2500px" height="2500px" viewBox="0 0 2500 2500" enable-background="new 0 0 2500 2500" xml:space="preserve">
<g>
	<path fill="#FFFFFF" d="M1141.768,1679.637c-145.353,0-261.821-24.578-261.821-54.538c0-29.947,116.469-54.486,261.821-54.486
		c144.263,0,260.809,24.552,260.809,54.486C1402.589,1655.059,1286.03,1679.637,1141.768,1679.637z M1418.568,901.606
		c0,0-166.714,200.94-158.192,213.729c11.854-12.788-59.855-215.895-59.855-215.895s-14.954-42.749-61.905-182.692H968.66v-1.103
		l-412.478,1.103H245.142l-31.05,131.41h289.719c150.618,0,242.587,60.919,216.894,168.879
		c-27.742,117.558-159.204,167.777-299.238,167.777h-52.372l67.339-287.488H202.354l-99.388,419.948h332.39
		c250.069,0,487.3-131.41,530.1-300.237c7.483-31.011,6.434-109.037-12.801-154.988c0-1.09-1.09-3.204-2.166-6.382
		c-1.051-1.089-2.153-8.572,2.166-9.675c2.101-1.051,6.381,3.216,6.381,4.318c0,0,2.153,5.37,4.268,9.637l211.575,597.374
		l538.726-608.1l227.606-1.063h55.575c150.722,0,243.688,60.918,218.009,168.879c-27.82,117.558-160.241,167.777-300.275,167.777
		h-53.475l68.415-287.488h-234.065l-99.4,419.948h332.429c250.044,0,489.401-131.41,528.972-300.237
		c40.608-168.879-134.665-300.289-386.889-300.289h-495.873C1443.211,871.646,1418.568,901.606,1418.568,901.606z M36.769,1621.934
		c0,89.726,512.98,162.421,1145.593,162.421c633.755,0,1146.826-72.695,1146.826-162.421c0-89.803-513.071-162.446-1146.826-162.446
		C549.749,1459.475,36.769,1532.131,36.769,1621.934L36.769,1621.934z M2241.486,1751.19v-4.28h-25.641l-1.063,4.28h10.687
		l-4.306,33.164h5.369l4.255-33.164H2241.486z M2279.941,1784.354v-37.444h-4.279l-13.878,25.681l-6.329-25.681h-4.28
		l-11.828,37.444h4.357l9.546-28.858l6.459,28.858l14.967-28.858h0.986v28.858H2279.941z"/>
</g>
</svg>
