<?xml version="1.0" encoding="utf-8"?>
<!-- Generator: Adobe Illustrator 16.0.0, SVG Export Plug-In . SVG Version: 6.00 Build 0)  -->
<!DOCTYPE svg PUBLIC "-//W3C//DTD SVG 1.1//EN" "http://www.w3.org/Graphics/SVG/1.1/DTD/svg11.dtd">
<svg version="1.1" id="Layer_1" xmlns="http://www.w3.org/2000/svg" xmlns:xlink="http://www.w3.org/1999/xlink" x="0px" y="0px"
	 width="2728px" height="3346.3px" viewBox="0 0 2728 3346.3" enable-background="new 0 0 2728 3346.3" xml:space="preserve">
<g>
	<path fill="#FFFFFF" d="M1505.2,291.2C1725.1,1.4,2030.8,0,2030.8,0s45.5,272.5-173,534.9C1624.6,815.2,1359.5,769.3,1359.5,769.3
		S1309.7,548.9,1505.2,291.2L1505.2,291.2z M1387.4,960.2c113.1,0,323-155.5,596.3-155.5c470.398,0,655.398,334.7,655.398,334.7
		s-361.898,185-361.898,634c0,506.5,450.8,681,450.8,681s-315.1,887-740.8,887c-195.5,0-347.5-131.801-553.5-131.801
		c-209.9,0-418.3,136.699-553.9,136.699C491.1,3346.4,0,2504.9,0,1828.599C0,1163.1,415.7,814,805.5,814
		C1059,814,1255.7,960.2,1387.4,960.2z"/>
</g>
</svg>
