<?xml version="1.0" encoding="utf-8"?>
<!-- Generator: Adobe Illustrator 16.0.0, SVG Export Plug-In . SVG Version: 6.00 Build 0)  -->
<!DOCTYPE svg PUBLIC "-//W3C//DTD SVG 1.1//EN" "http://www.w3.org/Graphics/SVG/1.1/DTD/svg11.dtd">
<svg version="1.1" id="Layer_1" xmlns="http://www.w3.org/2000/svg" xmlns:xlink="http://www.w3.org/1999/xlink" x="0px" y="0px"
	 width="1295.527px" height="305.541px" viewBox="608.154 463.359 1295.527 305.541"
	 enable-background="new 608.154 463.359 1295.527 305.541" xml:space="preserve">
<path fill="#D1EFFA" d="M1238.608,768.9v-1.249c1.249-1.561,3.434-2.496,5.306-2.185c9.051-0.312,17.79-0.312,26.84,0
	c1.873,0,4.058,0.624,5.307,2.185v1.249H1238.608z"/>
<path fill="#00A8E1" d="M1276.06,767.651c-12.483-0.312-24.967-0.312-37.451,0c-17.165-0.937-34.33-1.561-51.495-2.809
	c-45.566-3.433-90.819-10.299-135.137-20.599c-153.238-35.578-287.751-107.048-405.099-210.976
	c-10.923-9.675-21.223-19.661-31.833-29.648c-2.497-2.185-4.682-5.306-5.93-8.427c-1.873-4.369-0.937-9.051,2.185-12.483
	c3.12-3.434,8.114-4.682,12.483-2.81c2.809,1.249,5.617,2.497,8.114,4.058c112.042,69.285,234.383,119.844,362.653,149.806
	c43.069,9.986,86.45,17.789,130.144,23.406c62.731,7.803,126.086,10.611,189.129,8.427c34.019-0.937,67.725-4.057,101.431-8.427
	c78.648-9.986,156.359-27.776,231.574-52.743c39.636-13.108,78.335-28.089,116.099-45.566c5.618-3.121,12.484-4.057,18.726-2.496
	c10.3,2.496,16.541,13.107,14.045,23.406c-0.312,1.249-0.937,2.81-1.561,4.058c-2.497,4.682-5.93,8.738-10.299,11.859
	c-35.892,28.089-74.591,52.744-115.476,73.343c-77.087,39.012-159.479,66.788-244.369,82.704
	C1374.994,760.474,1325.684,765.779,1276.06,767.651L1276.06,767.651z"/>
<path fill="#00A8E1" d="M1812.55,463.359c20.598,0.625,40.884,1.873,60.858,7.179c5.617,1.561,10.923,3.433,16.229,5.93
	c7.179,2.809,11.859,9.675,12.796,17.165c1.249,8.738,1.561,17.789,0.937,26.84c-4.058,53.368-20.599,104.864-48.062,150.742
	c-9.987,16.541-22.159,31.521-36.203,44.629c-2.809,2.809-6.242,4.994-9.987,6.242c-5.93,1.561-9.675-1.561-9.986-7.49
	c0.312-3.121,0.936-6.242,2.185-9.363c10.923-29.336,21.534-58.361,29.961-88.635c4.993-16.541,8.427-33.394,10.611-50.559
	c0.624-6.242,0.936-12.484,0.312-18.726c-0.312-10.611-7.178-19.662-17.478-22.783c-9.674-3.121-19.661-4.993-29.961-5.617
	c-28.712-1.249-57.425,0-85.825,3.745l-37.764,4.681c-4.057,0.312-7.802,0-9.987-3.745c-2.185-3.745-1.248-7.49,0.937-11.235
	c2.497-3.433,5.618-6.554,9.363-8.738c23.095-16.541,48.999-26.528,76.463-33.082
	C1769.169,466.169,1790.703,463.984,1812.55,463.359z"/>
</svg>
