<?xml version="1.0" encoding="utf-8"?>
<!-- Generator: Adobe Illustrator 16.0.0, SVG Export Plug-In . SVG Version: 6.00 Build 0)  -->
<!DOCTYPE svg PUBLIC "-//W3C//DTD SVG 1.1//EN" "http://www.w3.org/Graphics/SVG/1.1/DTD/svg11.dtd">
<svg version="1.1"
	 id="Layer_1" xmlns:svg="http://www.w3.org/2000/svg" xmlns:sodipodi="http://sodipodi.sourceforge.net/DTD/sodipodi-0.dtd" xmlns:inkscape="http://www.inkscape.org/namespaces/inkscape" inkscape:export-xdpi="96" sodipodi:docname="Fandango at Home stacked 2024.svg" inkscape:version="1.3.2 (091e20e, 2023-11-25, custom)" inkscape:export-filename="Fandango at Home stacked 2024.png" inkscape:export-ydpi="96"
	 xmlns="http://www.w3.org/2000/svg" xmlns:xlink="http://www.w3.org/1999/xlink" x="0px" y="0px" width="360.2px" height="360.2px"
	 viewBox="319.9 0 360.2 360.2" enable-background="new 319.9 0 360.2 360.2" xml:space="preserve">
<sodipodi:namedview  id="namedview10" inkscape:cx="227" inkscape:zoom="1" inkscape:cy="375.5" borderopacity="1" pagecolor="#505050" bordercolor="#eeeeee" inkscape:current-layer="Layer_1" inkscape:window-width="1920" inkscape:pagecheckerboard="0" inkscape:pageopacity="0" inkscape:showpageshadow="0" inkscape:window-y="-9" inkscape:window-maximized="1" inkscape:deskcolor="#d1d1d1" inkscape:window-x="-9" inkscape:window-height="991">
	</sodipodi:namedview>
<path id="path1" fill="#FF7300" d="M653,183c-17.1-3.4-31.6-16.2-36.4-34.1c-4.8-18,1.4-36.3,14.5-47.8l0,0L604,0L319.9,76.1
	L347,177.3l0,0c17,3.5,31.4,16.2,36.2,34.1c4.8,17.9-1.4,36.1-14.3,47.6l0,0L396,360.2l284.1-76.1L653,183z"/>
<path id="path2" fill="#FFFFFF" d="M559.1,231.4l-17-63.4l-84.5,22.7l-17-63.4l84.5-22.7l-17-63.4L339,86.5l20.9,78.2
	c18.3,7,33.1,22.3,38.5,42.6c5.399,20.3,0.3,41-12,56.1l20.6,76.7l84.5-22.699l-17-63.4L559.1,231.4z"/>
</svg>
