<?xml version="1.0" encoding="utf-8"?>
<!-- Generator: Adobe Illustrator 16.0.0, SVG Export Plug-In . SVG Version: 6.00 Build 0)  -->
<!DOCTYPE svg PUBLIC "-//W3C//DTD SVG 1.1//EN" "http://www.w3.org/Graphics/SVG/1.1/DTD/svg11.dtd">
<svg version="1.1" id="Layer_1" xmlns="http://www.w3.org/2000/svg" xmlns:xlink="http://www.w3.org/1999/xlink" x="0px" y="0px"
	 width="797.312px" height="558.094px" viewBox="0.628 1.606 797.312 558.094" enable-background="new 0.628 1.606 797.312 558.094"
	 xml:space="preserve">
<g>
	<path fill="#FF0000" d="M781.322,88.746c-9.131-34.248-36.149-61.262-70.521-70.522C648.65,1.606,399.284,1.606,399.284,1.606
		s-249.238,0-311.517,16.617c-34.245,9.132-61.262,36.149-70.521,70.522C0.628,150.896,0.628,280.651,0.628,280.651
		s0,129.759,16.618,191.909c9.131,34.248,36.149,61.262,70.521,70.521C150.046,559.7,399.284,559.7,399.284,559.7
		s249.366,0,311.517-16.618c34.248-9.131,61.263-36.149,70.521-70.521c16.618-62.15,16.618-191.906,16.618-191.906
		S797.94,150.896,781.322,88.746z"/>
	<path fill="#FFFFFF" d="M319.631,400.263l207.127-119.611L319.631,161.044V400.263z"/>
</g>
</svg>
