<?xml version="1.0" encoding="utf-8"?>
<!DOCTYPE svg PUBLIC "-//W3C//DTD SVG 1.1//EN" "http://www.w3.org/Graphics/SVG/1.1/DTD/svg11.dtd">
<svg version="1.1" id="Layer_1" xmlns="http://www.w3.org/2000/svg" xmlns:xlink="http://www.w3.org/1999/xlink" x="0px" y="0px"
	 width="712.477px" height="137.461px" viewBox="2013.968 2704.121 712.477 137.461"
	 enable-background="new 2013.968 2704.121 712.477 137.461" fill="#ffffff" xml:space="preserve">
<g>
	<path d="M2161.271,2706.582h11.973l-17.838,132.539h-12.062L2161.271,2706.582z"/>
	<path d="M2192.313,2743.496h11.618l-12.49,95.625h-12.062L2192.313,2743.496z M2201.967,2704.121c2.694,0,5.01,0.967,6.943,2.9
		s2.9,4.249,2.9,6.943c0,2.755-0.967,5.084-2.9,6.987c-1.934,1.904-4.249,2.856-6.943,2.856c-2.755,0-5.084-0.952-6.987-2.856
		c-1.905-1.903-2.856-4.232-2.856-6.987c0-2.694,0.952-5.01,2.856-6.943C2196.883,2705.088,2199.212,2704.121,2201.967,2704.121z"/>
	<path d="M2319.477,2764.15l-10.107,5.889c-7.082-11.483-17.909-17.227-32.482-17.227c-8.429,0-16.125,1.876-23.09,5.625
		c-6.965,3.75-12.408,8.965-16.329,15.645c-3.922,6.68-5.882,13.829-5.882,21.445c0,6.738,1.462,12.774,4.389,18.105
		c2.925,5.332,7.037,9.435,12.333,12.305c5.295,2.871,11.544,4.307,18.743,4.307c7.373,0,14.41-1.464,21.111-4.395
		c6.701-2.93,11.923-6.709,15.669-11.338l10.107,7.119c-6.328,6.914-13.199,11.968-20.61,15.161
		c-7.413,3.192-16.011,4.79-25.796,4.79c-15.117,0-26.91-4.116-35.376-12.349c-8.468-8.231-12.7-19.204-12.7-32.915
		c0-15.234,5.551-28.257,16.655-39.067c11.103-10.811,24.711-16.216,40.825-16.216c9.668,0,18.193,2.036,25.576,6.108
		C2309.897,2751.217,2315.551,2756.886,2319.477,2764.15z"/>
	<path d="M2351.994,2706.582h11.941l-9.623,72.581l46.347-35.667h19.145l-55.503,42.715l48.911,52.91h-16.43l-44.264-47.752
		l-6.157,47.752h-12.295L2351.994,2706.582z"/>
</g>
<g>
	<path d="M2576.517,2743.496h11.618l-12.49,95.625h-12.062L2576.517,2743.496z M2586.171,2704.121c2.694,0,5.01,0.967,6.943,2.9
		s2.9,4.249,2.9,6.943c0,2.755-0.967,5.084-2.9,6.987c-1.934,1.904-4.249,2.856-6.943,2.856c-2.755,0-5.084-0.952-6.987-2.856
		c-1.905-1.903-2.856-4.232-2.856-6.987c0-2.694,0.952-5.01,2.856-6.943C2581.087,2705.088,2583.417,2704.121,2586.171,2704.121z"/>
	<path d="M2659.406,2754.219l-6.68,9.932c-5.394-7.676-11.786-11.514-19.172-11.514c-4.222,0-7.828,1.377-10.817,4.131
		c-2.991,2.755-4.485,5.801-4.485,9.141c0,2.579,0.908,5.04,2.725,7.383c1.758,2.344,5.771,5.537,12.041,9.58
		c9.141,5.919,15.175,11.074,18.105,15.469c2.87,4.453,4.307,9.58,4.307,15.381c0,8.028-2.799,14.678-8.396,19.951
		c-5.597,5.273-12.881,7.91-21.849,7.91c-11.841,0-21.805-5.243-29.894-15.732l7.471-8.701c7.093,8.613,14.803,12.92,23.127,12.92
		c4.749,0,8.881-1.67,12.399-5.01c3.517-3.34,5.276-7.207,5.276-11.602c0-3.573-1.318-7.001-3.955-10.283
		c-1.7-2.109-6.269-5.686-13.708-10.729c-8.026-5.511-13.298-10.083-15.819-13.715c-2.522-3.573-3.783-7.615-3.783-12.126
		c0-7.088,2.667-13.121,8.001-18.101c5.333-4.979,12.075-7.469,20.224-7.469c4.807,0,9.159,0.967,13.056,2.9
		S2655.419,2749.297,2659.406,2754.219z"/>
	<path d="M2699.92,2707.725h12.035l-4.765,35.771h19.255l-1.406,10.723h-19.277l-11.312,84.902h-12.302l11.483-84.902h-16.405
		l1.494-10.723h16.361L2699.92,2707.725z"/>
</g>
<path d="M2540.075,2815.013h-60.267c-3.328,0-5.648-2.698-5.18-6.027l14.399-102.455h-36.16l-18.634,132.589h36.159h72.322
	l3.388-24.107l0.846-6.027C2546.482,2812.315,2543.404,2815.013,2540.075,2815.013z M2460.034,2827.067h-12.053l1.694-12.054h12.053
	L2460.034,2827.067z M2463.422,2802.96h-12.054l1.693-12.054h12.055L2463.422,2802.96z M2466.81,2778.853h-12.054l1.694-12.054
	h12.054L2466.81,2778.853z M2470.198,2754.746h-12.054l1.694-12.054h12.053L2470.198,2754.746z M2473.586,2730.639h-12.055
	l1.693-12.054h12.056L2473.586,2730.639z"/>
<path d="M2068.764,2706.532h-36.161l-18.634,132.589h36.161l5.082-36.161c0.468-3.328,3.546-6.027,6.874-6.027h60.269
	c3.327,0,5.647,2.7,5.18,6.027l0.846-6.027l3.389-24.107l0.846-6.026c-0.467,3.329-3.545,6.026-6.874,6.026h-60.268
	c-3.329,0-5.648-2.698-5.18-6.026l4.235-30.133c0.468-3.329,3.545-6.027,6.874-6.027h60.267c3.329,0,5.648,2.698,5.18,6.027
	l0.848-6.027l3.388-24.107H2068.764z M2039.77,2827.067h-12.054l1.694-12.054h12.054L2039.77,2827.067z M2043.157,2802.96h-12.053
	l1.693-12.054h12.053L2043.157,2802.96z M2046.545,2778.853h-12.053l1.693-12.054h12.054L2046.545,2778.853z M2049.934,2754.746
	h-12.053l1.693-12.054h12.054L2049.934,2754.746z M2053.321,2730.639h-12.053l1.693-12.054h12.054L2053.321,2730.639z"/>
</svg>
